<svg xmlns="http://www.w3.org/2000/svg" viewBox="0 0 512 512" width="512" height="512">
  <rect width="512" height="512" fill="#0f0f10"/>
  <g transform="translate(106,151) scale(6.2)">
    <path fill="url(#a)" fill-rule="evenodd" d="M37.372 2.96c4.1-4.11 11.123-1.206 11.123 4.6v14.242a9.247 9.247 0 0 1-9.247 9.247h-.015c-5.102 0-9.24-4.135-9.263-9.245v9.245-20.666z" clip-rule="evenodd"/>
    <path fill="url(#b)" fill-rule="evenodd" d="M29.97 31.05H6.748v-.001a6.6 6.6 0 0 0 4.306-1.7L29.97 10.383zm0-9.246c.022 5.11 4.16 9.246 9.262 9.246H29.97z" clip-rule="evenodd"/>
    <path fill="url(#c)" fill-rule="evenodd" d="M29.97 10.383 11.054 29.348a6.62 6.62 0 0 1-4.305 1.7h-.224c-5.797 0-8.705-7.005-4.61-11.11L18.846 2.96c4.1-4.111 11.123-1.207 11.123 4.598v2.823Z" clip-rule="evenodd"/>
  </g>
  <defs>
    <linearGradient id="a" x1="48.495" x2="29.94" y1="8.1" y2="19.304" gradientUnits="userSpaceOnUse">
      <stop offset=".01" stop-color="#ec0404"/>
      <stop offset=".188" stop-color="#ec0404"/>
      <stop offset="1" stop-color="#610a0a"/>
    </linearGradient>
    <linearGradient id="b" x1="22.991" x2="22.991" y1="10.383" y2="31.05" gradientUnits="userSpaceOnUse">
      <stop stop-color="#da0707"/>
      <stop offset="1" stop-color="#ff2a2a"/>
    </linearGradient>
    <linearGradient id="c" x1="29.97" x2=".006" y1="1.034" y2="30.953" gradientUnits="userSpaceOnUse">
      <stop stop-color="#ffb7b7"/>
      <stop offset="1" stop-color="#ff1515"/>
    </linearGradient>
  </defs>
</svg>
