<svg xmlns="http://www.w3.org/2000/svg" viewBox="0 0 24 24"><path fill="currentColor" d="M23.148 7.452s-.223-1.568-.907-2.257c-.866-.906-1.835-.91-2.28-.964C16.782 4 12.005 4 12.005 4h-.009s-4.776 0-7.958.231c-.444.053-1.413.058-2.279.964-.684.689-.902 2.257-.902 2.257S.625 9.296.625 11.136v1.724c0 1.84.227 3.683.227 3.683s.222 1.569.902 2.257c.866.907 2.003.876 2.51.973C6.086 19.947 12 20 12 20s4.78-.009 7.962-.235c.444-.054 1.413-.058 2.28-.965.683-.688.906-2.257.906-2.257s.226-1.84.226-3.683v-1.724c0-1.84-.226-3.684-.226-3.684Zm-13.499 7.5V8.56l6.145 3.208-6.145 3.186Z"/></svg>