<svg width="128" height="128" viewBox="0 0 128 128" fill="none" xmlns="http://www.w3.org/2000/svg">
<path d="M0 51.2C0 33.2783 0 24.3175 3.48779 17.4723C6.55574 11.4511 11.4511 6.55574 17.4723 3.48779C24.3175 0 33.2783 0 51.2 0H76.8C94.7217 0 103.683 0 110.528 3.48779C116.549 6.55574 121.444 11.4511 124.512 17.4723C128 24.3175 128 33.2783 128 51.2V76.8C128 94.7217 128 103.683 124.512 110.528C121.444 116.549 116.549 121.444 110.528 124.512C103.683 128 94.7217 128 76.8 128H51.2C33.2783 128 24.3175 128 17.4723 124.512C11.4511 121.444 6.55574 116.549 3.48779 110.528C0 103.683 0 94.7217 0 76.8V51.2Z" fill="black"/>
<path d="M38.5325 37.856C49.5955 26.8104 65.889 24.0248 79.4983 29.6206C82.5092 30.7381 85.1336 32.3287 87.1809 33.8071L75.8167 39.0503C65.2354 34.6149 53.1133 37.6324 45.7151 45.0249C35.8669 54.857 33.7546 71.7935 44.8752 82.9956L45.4055 83.5337L13.3948 112.106C15.425 109.312 17.9463 106.673 20.4583 104.035C27.5468 96.5906 34.584 89.2152 30.2913 78.7886C24.5447 64.8376 27.891 48.4889 38.5325 37.856ZM113.462 16.5552C102.924 31.0562 97.7792 38.1477 101.908 55.8892L101.883 55.8638C104.731 67.9406 101.685 81.3326 91.8518 91.1577C79.4553 103.553 59.618 106.312 43.2815 95.1548L54.6711 89.8862C65.0975 93.9777 76.5052 92.1812 84.7034 83.9897C92.9019 75.7979 94.7429 63.866 90.6223 53.938C89.8392 52.0555 87.4901 51.5835 85.8469 52.7954L52.3225 77.5249L100.343 29.3286V29.3716L114.21 15.5151C113.961 15.8675 113.711 16.2114 113.462 16.5552Z" fill="white"/>
</svg>
