<svg width="98" height="98" viewBox="0 0 98 98" fill="none" xmlns="http://www.w3.org/2000/svg">
<circle cx="49" cy="49" r="49" fill="#000008"/>
<path d="M50.465 78.4189C50.6159 78.4189 50.7668 78.4189 50.9177 78.3812H50.9554C51.1063 78.3812 51.2195 78.3812 51.3704 78.3434H51.4836C51.5967 78.3434 51.7099 78.3434 51.8231 78.3057H51.9363C51.9888 78.3057 52.0413 78.2976 52.0976 78.2889C52.1626 78.2788 52.2326 78.268 52.3135 78.268H52.389C52.4644 78.268 52.5399 78.2586 52.6153 78.2491C52.6908 78.2397 52.7662 78.2303 52.8417 78.2303C52.9667 78.2303 53.0658 78.2044 53.182 78.174L53.2184 78.1646L53.2566 78.1548H53.3321C53.3887 78.1548 53.4452 78.1454 53.5018 78.136C53.5584 78.1265 53.615 78.1171 53.6716 78.1171H53.747C53.8225 78.0982 53.8885 78.0888 53.9545 78.0794C54.0205 78.0699 54.0866 78.0605 54.162 78.0416C54.4638 78.0039 54.7656 77.9285 55.0297 77.853H55.1051C55.1617 77.8342 55.2277 77.8247 55.2938 77.8153C55.3598 77.8059 55.4258 77.7964 55.4824 77.7776H55.5201C55.671 77.7398 55.8125 77.7021 55.9539 77.6644C56.0954 77.6267 56.2369 77.5889 56.3878 77.5512C52.7662 77.6644 49.8237 77.174 47.9752 76.759C43.8255 75.8536 39.8644 74.2315 36.5069 71.4398C30.9237 66.762 28.0566 60.047 28.1321 53.3698C28.1698 48.3901 29.8674 43.4105 33.3003 39.3362C37.6009 34.2434 43.7123 31.565 49.9746 31.4141H50.8423V26.3967H49.8614C47.9375 26.4344 46.0512 26.6608 44.2027 27.0758C42.3165 27.4907 40.5057 28.132 38.7704 28.9243C36.9973 29.7542 35.3375 30.7728 33.7907 31.9422C32.2063 33.1494 30.7351 34.5452 29.4524 36.0919C28.2452 37.5255 27.189 39.0722 26.3213 40.732C25.4536 42.3165 24.7746 44.0141 24.2464 45.7494C23.756 47.447 23.3788 49.2201 23.2279 50.9931C23.209 51.2761 23.1901 51.5496 23.1713 51.8231C23.1524 52.0966 23.1336 52.3701 23.1147 52.653V53.6339C23.1524 55.5578 23.3788 57.444 23.7937 59.2925C24.2087 61.1788 24.85 62.9895 25.6422 64.7249C26.5854 66.7997 28.283 69.8554 30.8105 72.1566C35.7901 76.08 42.0902 78.4189 48.9183 78.4189H50.465Z" fill="white"/>
<path d="M52.277 72.9488C53.9369 73.2506 56.0872 73.5146 57.8225 73.5524L57.9289 73.5551C60.7911 73.6286 61.8717 73.6564 65.971 72.911C65.8955 72.9865 65.7824 73.0619 65.6692 73.1374L65.5956 73.1857L65.5945 73.1864C64.457 73.9329 64.3338 74.0138 63.6321 74.42C62.9153 74.835 62.1985 75.1745 61.4818 75.514L61.4212 75.5388C60.6199 75.8667 59.9727 76.1315 58.4638 76.6835C56.6907 76.6835 53.6728 76.608 51.4093 76.3063C47.9009 75.8158 44.5434 75.0613 41.8273 73.6278C39.2243 72.232 37.074 70.723 35.2255 68.7236C33.1506 66.4979 31.6416 63.9703 30.6985 61.2164C29.7554 58.5003 29.3782 55.6332 29.5668 52.7661C29.6422 51.3703 29.9063 49.9745 30.2458 48.6541C30.5853 47.3338 31.0758 46.0512 31.6794 44.8062C32.283 43.5613 32.9997 42.3919 33.8297 41.2979C34.6596 40.2038 35.6404 39.1476 36.659 38.2422C38.8093 36.3182 41.3368 34.847 44.0907 33.9416C46.241 33.2248 48.5045 32.8476 50.768 32.8476C53.0315 32.8476 55.2949 33.1871 57.4452 33.8661C58.0865 34.0925 58.7279 34.3188 59.3692 34.5829L57.2566 39.0721C55.2195 38.2422 52.9937 37.7895 50.768 37.7895C49.0327 37.7895 47.3351 38.0535 45.6375 38.6194C36.9608 41.4865 32.3961 50.9176 35.3764 59.632C37.8285 66.7997 44.5057 71.553 52.277 72.9488Z" fill="white"/>
<path d="M66.9436 67.9794C66.9977 67.9759 67.0509 67.9725 67.1031 67.9691C68.3563 67.8751 70.0518 67.703 71.2388 67.5826C71.4811 67.558 71.7023 67.5356 71.8941 67.5164C70.5737 69.1763 69.027 70.6852 67.3671 72.0056C65.6318 72.3829 64.6133 72.5337 63.2552 72.6092C58.351 72.9487 53.2959 72.5337 49.8629 71.402C46.2791 70.1948 42.9216 68.0823 40.4695 65.4415C39.0737 63.9325 37.9797 62.3104 37.1875 60.5751C36.3198 58.6134 35.8671 56.5385 35.8671 54.4637C35.8671 52.3888 36.2821 50.3894 37.0743 48.5032C37.8288 46.6924 38.9606 45.0325 40.3564 43.6367C41.7522 42.2409 43.4121 41.1092 45.2228 40.3547C47.1091 39.5625 49.1085 39.1475 51.1833 39.1475C53.2582 39.1475 55.2576 39.5625 57.1438 40.3547C58.9546 41.1092 60.6145 42.2409 62.0103 43.6367C63.1043 44.693 63.9719 45.9002 64.6887 47.2206L60.1995 49.4463C58.4264 46.3152 55.0689 44.1649 51.1833 44.1649C45.4869 44.1649 40.8468 48.7673 40.8468 54.5014C40.8468 60.2355 45.9773 64.8757 51.4097 66.6864C54.918 67.8559 59.03 68.1577 62.3875 68.1577C64.1895 68.1577 65.785 68.0544 66.9436 67.9794Z" fill="white"/>
<path fill-rule="evenodd" clip-rule="evenodd" d="M82.8704 34.7338C83.8135 36.9596 84.5303 39.2608 85.0207 41.6374C85.5111 44.0518 85.7752 46.5416 85.8129 49.0692C85.8129 51.559 85.5488 54.0488 85.0584 56.4632C84.568 58.8398 83.8512 61.141 82.9081 63.3668C81.965 65.5548 80.8333 67.6674 79.5129 69.6291C78.1925 71.5907 76.6836 73.4015 75.0237 75.0614C73.3638 76.7213 71.553 78.2303 69.5913 79.5506C67.5919 80.871 65.5171 82.0405 63.3291 82.9458C61.1033 83.8889 58.8021 84.6057 56.4255 85.0961C54.0111 85.5866 51.5213 85.8506 49.0314 85.8506C46.5416 85.8506 44.0518 85.5866 41.6374 85.0961C39.2608 84.6057 36.9596 83.8889 34.7338 82.9458C32.5458 82.0027 30.4332 80.871 28.4716 79.5506C26.5099 78.2303 24.6991 76.7213 23.0392 75.0614C21.3793 73.4015 19.8704 71.5907 18.55 69.6291C17.2296 67.6297 16.0602 65.5548 15.1548 63.3668C14.2117 61.141 13.4949 58.8398 13.0045 56.4632C12.5141 54.0488 12.25 51.559 12.25 49.0692C12.25 46.5794 12.5141 44.0895 13.0045 41.6752C13.4949 39.2985 14.2117 36.9973 15.1548 34.7716C16.0979 32.5835 17.2296 30.471 18.55 28.5093C19.8704 26.5476 21.3793 24.7368 23.0392 23.077C24.6991 21.4171 26.5099 19.9081 28.4716 18.5877C30.471 17.2674 32.5458 16.0979 34.7338 15.1925C36.9596 14.2494 39.2608 13.5326 41.6374 13.0422C44.0518 12.5518 46.5039 12.25 48.9937 12.25C51.4835 12.25 53.9734 12.5141 56.3877 13.0045C58.7644 13.4949 61.0656 14.2117 63.2913 15.1548C65.4794 16.0979 67.5919 17.2296 69.5536 18.55C71.5153 19.8704 73.3261 21.3793 74.986 23.0392C76.6458 24.6991 78.1548 26.5099 79.4752 28.4716C80.7955 30.471 81.965 32.5458 82.8704 34.7338ZM16.8901 49.0314C16.8901 66.762 31.2632 81.1728 49.0314 81.1728C66.7997 81.1728 81.1728 66.7997 81.1728 49.0314C81.1728 31.3009 66.762 16.8901 49.0314 16.8901C31.3009 16.8901 16.8901 31.3009 16.8901 49.0314Z" fill="white"/>
</svg>
