<svg width="98" height="98" viewBox="0 0 98 98" fill="none" xmlns="http://www.w3.org/2000/svg">
<path d="M96.5435 60.8261C90.005 87.0601 63.4344 103.08 37.1522 96.5371C10.9182 89.9786 -5.07549 63.4078 1.46299 37.1739C8.00148 10.9399 34.5561 -5.07951 60.7741 1.46295C87.0723 7.92523 103.066 34.5761 96.5435 60.8261Z" fill="#F6F8FC"/>
<path fill-rule="evenodd" clip-rule="evenodd" d="M30.9804 28.4238H67.671C68.5464 28.4238 69.3552 28.8775 69.7918 29.6135L80.4815 47.6326C81.0356 48.567 80.8711 49.7465 80.0803 50.5042L50.6572 78.7019C49.7041 79.6153 48.1708 79.6153 47.2177 78.7019L17.8345 50.5423C17.0255 49.767 16.874 48.5531 17.4689 47.6128L28.8951 29.5557C29.3401 28.8524 30.1298 28.4238 30.9804 28.4238ZM62.9336 36.4687V41.5246H52.4819V45.03C59.8224 45.4046 65.3298 46.9432 65.3706 48.7873L65.3704 52.6317C65.3295 54.4758 59.8224 56.0143 52.4819 56.3889V64.9916H45.5419V56.3889C38.2014 56.0143 32.694 54.4758 32.6531 52.6317L32.6534 48.7873C32.6942 46.9432 38.2014 45.4046 45.5419 45.03V41.5246H35.0902V36.4687H62.9336ZM49.0119 53.7478C56.8455 53.7478 63.3932 52.4468 64.9955 50.7094C63.6367 49.2362 58.7217 48.0767 52.4819 47.7583V51.4284C51.3635 51.4855 50.2026 51.5156 49.0119 51.5156C47.8212 51.5156 46.6603 51.4855 45.5419 51.4284V47.7583C39.3021 48.0767 34.3871 49.2362 33.0283 50.7094C34.6307 52.4468 41.1782 53.7478 49.0119 53.7478Z" fill="#009393"/>
</svg>
