<svg width="98" height="98" viewBox="0 0 98 98" fill="none" xmlns="http://www.w3.org/2000/svg">
<path d="M96.5435 60.8261C90.005 87.0601 63.4344 103.08 37.1522 96.5371C10.9182 89.9786 -5.07549 63.4078 1.46299 37.1739C8.00148 10.9399 34.5561 -5.07951 60.7741 1.46295C87.0723 7.92523 103.066 34.5761 96.5435 60.8261Z" fill="#2775CA"/>
<path d="M20.4735 38.1824C14.5524 53.9035 22.7192 71.666 38.6442 77.3824C39.2567 77.791 39.8692 78.6074 39.8692 79.2199V82.0785C39.8692 82.4867 39.8692 82.691 39.6649 82.8949C39.461 83.7117 38.6442 84.1199 37.8274 83.7117C26.3942 80.0367 17.6149 71.2574 13.9399 59.8242C7.81489 40.4285 18.4317 19.8074 37.8274 13.6824C38.0317 13.4785 38.4399 13.4785 38.6442 13.4785C39.461 13.6824 39.8692 14.2949 39.8692 15.1117V17.9699C39.8692 18.991 39.461 19.6035 38.6442 20.0117C30.2735 23.0742 23.536 29.6074 20.4735 38.1824Z" fill="white"/>
<path d="M58.4485 14.4992C58.6524 13.6824 59.4692 13.2742 60.286 13.6824C71.5149 17.3574 80.4986 26.1367 84.1735 37.7742C90.2985 57.1699 79.6817 77.791 60.286 83.916C60.0817 84.1199 59.6735 84.1199 59.4692 84.1199C58.6524 83.916 58.2442 83.3035 58.2442 82.4867V79.6285C58.2442 78.6074 58.6524 77.9949 59.4692 77.5867C67.8399 74.5242 74.5774 67.991 77.6399 59.416C83.561 43.6949 75.3942 25.9324 59.4692 20.216C58.8567 19.8074 58.2442 18.991 58.2442 18.1742V15.316C58.2442 14.9074 58.2442 14.7035 58.4485 14.4992Z" fill="white"/>
<path d="M49.6691 45.3286C58.2441 46.3493 62.5316 48.7993 62.5316 55.945C62.5316 61.4575 58.4484 65.745 52.3234 66.7661V71.6661C52.1191 72.6868 51.5066 73.2993 50.6897 73.2993H47.6272C46.6066 73.095 45.9941 72.4825 45.9941 71.6661V66.7661C39.2566 65.745 35.9897 62.07 35.1734 56.9661V56.7618C35.1734 55.945 35.7859 55.3325 36.6022 55.3325H40.0734C40.6859 55.3325 41.2984 55.7411 41.5022 56.5575C42.1147 59.62 43.9522 61.8661 49.2609 61.8661C53.1397 61.8661 55.9984 59.6205 55.9984 56.3536C55.9984 53.0868 54.1609 51.8618 48.4441 50.8411C39.8691 49.82 35.7859 47.1661 35.7859 40.4286C35.7859 35.3243 39.6647 31.2411 45.7897 30.4243V25.7286C45.9941 24.7075 46.6066 24.095 47.4234 24.095H50.4859C51.5066 24.2993 52.1191 24.9118 52.1191 25.7286V30.6286C56.8147 31.0368 60.4897 34.5075 61.3066 38.9993V39.2036C61.3066 40.02 60.6941 40.6325 59.8772 40.6325H56.6109C55.9984 40.6325 55.3859 40.2243 55.1816 39.6118C54.1609 36.5493 52.1191 35.3243 48.4441 35.3243C44.3609 35.3243 42.3191 37.1613 42.3191 40.02C42.3191 42.8786 43.5441 44.5118 49.6691 45.3286Z" fill="white"/>
</svg>
